<?xml version="1.0" encoding="utf-8"?>
<!-- Generator: Adobe Illustrator 17.0.0, SVG Export Plug-In . SVG Version: 6.00 Build 0)  -->
<!DOCTYPE svg PUBLIC "-//W3C//DTD SVG 1.1 Tiny//EN" "http://www.w3.org/Graphics/SVG/1.1/DTD/svg11-tiny.dtd">
<svg version="1.1" baseProfile="tiny" id="Layer_1" xmlns="http://www.w3.org/2000/svg" xmlns:xlink="http://www.w3.org/1999/xlink"
	 x="0px" y="0px" width="14px" height="14.101px" viewBox="0 0 14 14.101" overflow="visible" xml:space="preserve">
<g>
	<path fill="#FFFFFF" d="M7.1,3.9c0.7,0,1.4,0.2,1.9,0.6h5v-1C14,1.601,12.399,0,10.5,0h-7C1.6,0,0,1.601,0,3.5v1h5.1
		C5.7,4.2,6.399,3.9,7.1,3.9z M9.899,2.2c0-0.2,0.2-0.4,0.4-0.4h1.2c0.2,0,0.399,0.2,0.399,0.4v1.2c0,0.2-0.199,0.399-0.399,0.399
		h-1.2c-0.2,0-0.4-0.199-0.4-0.399V2.2L9.899,2.2z M10.399,7.2c0,1.8-1.5,3.3-3.3,3.3S3.8,9,3.8,7.2c0-0.5,0.1-1,0.3-1.4H0v4.801
		c0,1.899,1.6,3.5,3.5,3.5h7c1.899,0,3.5-1.601,3.5-3.5V5.8h-3.9C10.3,6.3,10.399,6.7,10.399,7.2z"/>
</g>
</svg>
