<?xml version="1.0" encoding="utf-8"?>
<!-- Generator: Adobe Illustrator 17.0.0, SVG Export Plug-In . SVG Version: 6.00 Build 0)  -->
<!DOCTYPE svg PUBLIC "-//W3C//DTD SVG 1.1 Tiny//EN" "http://www.w3.org/Graphics/SVG/1.1/DTD/svg11-tiny.dtd">
<svg version="1.1" baseProfile="tiny" id="Layer_1" xmlns="http://www.w3.org/2000/svg" xmlns:xlink="http://www.w3.org/1999/xlink"
	 x="0px" y="0px" width="18px" height="18px" viewBox="0 0 18 18" overflow="visible" xml:space="preserve">
<path fill="#808080" d="M4.032,16.62H0.717V6.009h3.316V16.62z M2.289,4.681H2.265c-1.2,0-1.978-0.811-1.978-1.838
	C0.288,1.794,1.089,1,2.313,1c1.223,0,1.975,0.792,1.999,1.84C4.312,3.867,3.535,4.681,2.289,4.681z M17.296,16.62h-3.759v-5.491
	c0-1.438-0.587-2.418-1.881-2.418c-0.989,0-1.539,0.661-1.795,1.3c-0.096,0.228-0.081,0.547-0.081,0.867v5.742H6.055
	c0,0,0.048-9.727,0-10.611H9.78v1.665c0.22-0.729,1.41-1.768,3.31-1.768c2.355,0,4.206,1.526,4.206,4.813V16.62z"/>
</svg>
