<?xml version="1.0" encoding="utf-8"?>
<!-- Generator: Adobe Illustrator 19.0.0, SVG Export Plug-In . SVG Version: 6.00 Build 0)  -->
<svg version="1.1" id="Layer_1" xmlns="http://www.w3.org/2000/svg" xmlns:xlink="http://www.w3.org/1999/xlink" x="0px" y="0px"
	 width="807.1px" height="383.8px" viewBox="122 204.3 807.1 383.8" style="enable-background:new 122 204.3 807.1 383.8;"
	 xml:space="preserve">
<style type="text/css">
	.st0{fill:#BB8559;}
	.st1{fill:#FFFFFF;}
</style>
<title>Website logos</title>
<path class="st0" d="M603.9,287.2v-2.5c0-0.8-0.1-1.6-0.1-2.4c-0.4-6.2-1.6-12.3-3.5-18.2c-1.8-5.5-4.2-10.8-7.2-15.7
	c-3.6-6-8-11.5-13.2-16.3l-1.2,1.2c4.8,4.8,9,10.3,12.3,16.3c2.7,4.9,4.9,10,6.4,15.4c1.7,5.7,2.6,11.6,2.8,17.5
	c0,0.8,0.1,1.5,0.1,2.3v2.3c0,0.4,0,0.8,0,1.1l-0.1,1.2l-0.2,2.4l-0.3,2.3c-0.1,0.8-0.2,1.6-0.3,2.3c-0.3,1.6-0.5,3.1-0.9,4.7
	c-0.7,3.1-1.6,6.2-2.7,9.3c-0.6,1.5-1.2,3-1.8,4.5c-0.7,1.5-1.4,3-2.1,4.4c-6.4,12-16,21.9-27.8,28.7l-1.1,0.6
	c-0.4,0.2-0.8,0.4-1.1,0.6c-0.8,0.4-1.5,0.8-2.3,1.2c-1.6,0.7-3.1,1.5-4.7,2.1c-0.8,0.3-1.6,0.6-2.4,0.9s-1.6,0.6-2.5,0.8
	c-1.7,0.5-3.3,1-5,1.4s-3.4,0.7-5.1,1s-3.4,0.5-5.1,0.6s-3.5,0.2-5.2,0.3c-0.8,0-1.7,0-2.5,0H526l-1.4-0.1
	c-3.5-0.2-6.9-0.6-10.3-1.3c-3.4-0.7-6.7-1.6-9.9-2.8c-3.2-1.2-6.3-2.6-9.3-4.2c-3-1.6-5.8-3.4-8.5-5.4
	c-10.6-7.9-18.8-18.6-23.6-30.9c-0.3-0.7-0.6-1.5-0.8-2.2c-0.3-0.7-0.5-1.5-0.8-2.2c-0.4-1.5-0.9-3-1.2-4.5c-0.7-3-1.2-6-1.6-9.1
	c-0.1-1.5-0.3-3-0.3-4.5c0-0.7-0.1-1.5-0.1-2.2v-2.1c0-0.4,0-0.7,0-1.1l0.1-1.2l0.1-2.4l0.2-2c0.1-0.7,0.2-1.4,0.3-2.1
	c3.6-23.8,19.6-44,41.9-53c1.6-0.7,3.2-1.2,4.7-1.7c1.5-0.5,3-0.9,4.4-1.2c0.7-0.2,1.4-0.3,2-0.5l1.9-0.4l0.9-0.2l0.9-0.1l1.7-0.3
	c2.2-0.3,4.1-0.4,5.5-0.5c1.4,0,2.8-0.1,3.6-0.1h0.8v-15h-1c-0.9,0-2.1,0-4.1,0.2c-2,0.2-4.3,0.4-6.9,0.8l-2.1,0.4l-1.1,0.2
	l-1.1,0.3l-2.3,0.5c-0.8,0.2-1.6,0.4-2.5,0.7c-1.7,0.4-3.4,1.1-5.2,1.6c-1.8,0.6-3.7,1.4-5.6,2.3c-14.1,6.2-26.1,16.3-34.7,29
	c-7.1,10.6-11.6,22.6-13.1,35.3c-0.1,0.8-0.2,1.7-0.3,2.5l-0.2,2.7l-0.1,2.4v1.2c0,0.4,0,0.9,0,1.3v2.7c0,0.9,0.1,1.7,0.1,2.6
	c0.1,1.7,0.3,3.5,0.5,5.2c0.5,3.5,1.3,7,2.3,10.5c0.4,1.7,1,3.4,1.6,5.2c0.3,0.9,0.6,1.7,1,2.5s0.6,1.7,1,2.5
	c5.9,13.8,15.5,25.6,27.8,34.1c3.1,2.1,6.4,4.1,9.8,5.8c3.4,1.7,7,3.1,10.6,4.3c3.6,1.2,7.3,2.1,11.1,2.8c3.7,0.6,7.5,1,11.3,1.1
	h1.4h1.5c1,0,2,0,2.9-0.1c1.9-0.1,3.8-0.2,5.7-0.5s3.8-0.6,5.6-0.9s3.7-0.8,5.5-1.3c1.8-0.5,3.6-1.1,5.4-1.7c0.9-0.3,1.8-0.7,2.6-1
	s1.7-0.7,2.6-1.1c1.7-0.7,3.4-1.6,5.1-2.4c0.8-0.4,1.6-0.9,2.5-1.4c0.4-0.2,0.8-0.5,1.2-0.7l1.2-0.7c12.4-7.7,22.4-18.7,28.8-31.8
	c0.7-1.6,1.5-3.2,2.1-4.8c0.6-1.6,1.2-3.2,1.8-4.9c1.1-3.2,1.9-6.5,2.5-9.9c0.3-1.7,0.5-3.3,0.8-5c0.1-0.8,0.2-1.7,0.3-2.5l0.1-1.2
	l0-0.6v-0.3v-0.4l0.1-2.4v-1.2L603.9,287.2L603.9,287.2z"/>
<path class="st0" d="M479.6,262.2c-2.1,4.3-3.6,8.9-4.5,13.6c-0.4,2.3-0.7,4.6-0.9,6.9l-0.1,1.7c0,0.5,0,1.1,0,1.7v1.7
	c0,0.6,0.1,1.1,0.1,1.7c0.3,4.3,1.1,8.5,2.5,12.6c1.2,3.8,2.9,7.5,5,10.9c2.1,3.6,4.7,6.8,7.6,9.8l0.9-0.9c-2.7-3-5.1-6.2-7.1-9.8
	c-1.9-3.4-3.4-7-4.5-10.7c-1.2-4-1.9-8.1-2-12.2c0-0.5,0-1.1,0-1.6s0-1.1,0-1.6c0-0.5,0-1.1,0.1-1.6l0.1-1.7c0.2-2.2,0.5-4.3,1-6.5
	c3-13.8,11.7-25.6,23.9-32.6c2.1-1.2,4.2-2.2,6.4-3.1c1.1-0.5,2.3-0.8,3.4-1.2c1.1-0.4,2.3-0.7,3.5-1c1.2-0.3,2.4-0.5,3.5-0.7
	c1.2-0.2,2.4-0.3,3.6-0.4c1.2-0.1,2.4-0.1,3.6-0.2c0.6,0,1.2,0,1.8,0h0.9l0.9,0.1c19.1,1,35.8,13.2,42.8,31c0.8,2,1.5,4.1,2,6.2
	c0.5,2.1,0.9,4.2,1.1,6.3c0.1,1,0.2,2.1,0.2,3.1c0,0.5,0,1.1,0,1.6c-0.1,0.5,0,1,0,1.5c0,0.3,0,0.5,0,0.8l-0.1,0.8l-0.1,1.6
	l-0.2,1.4c-0.1,0.5-0.1,1-0.2,1.5c-2.5,16.6-13.6,30.6-29.2,36.8c-1.1,0.5-2.2,0.8-3.3,1.2c-1,0.4-2.1,0.6-3,0.9
	c-1.7,0.4-3.5,0.8-5.2,1c-1.5,0.2-2.9,0.3-3.8,0.3c-1,0-2,0-2.5,0h-0.3v10.3h0.4c0.6,0,1.4,0,2.9-0.1s3-0.3,4.8-0.6
	c2.1-0.3,4.2-0.8,6.3-1.4c1.2-0.3,2.4-0.7,3.6-1.1s2.6-1,3.9-1.6c9.8-4.3,18.1-11.3,24.1-20.2c4.9-7.3,8.1-15.7,9.1-24.5
	c0.1-0.6,0.1-1.2,0.2-1.8l0.1-1.9l0.1-1.6V288c0-0.3,0-0.6,0-0.9c0-0.6,0-1.2,0-1.9s-0.1-1.2-0.1-1.8c-0.1-1.2-0.2-2.4-0.4-3.6
	c-0.3-2.4-0.8-4.9-1.5-7.2c-0.7-2.4-1.5-4.8-2.5-7.1c-4.1-9.6-10.8-17.8-19.3-23.7c-2.2-1.5-4.5-2.8-6.8-4c-2.4-1.2-4.8-2.2-7.4-3
	c-5-1.6-10.3-2.5-15.6-2.7C508.5,231.5,489,243.3,479.6,262.2z"/>
<path class="st0" d="M525.5,319.8h0.6c0.8,0,1.5,0,2.3,0l2.5-0.3c0.8-0.1,1.6-0.2,2.4-0.4c0.8-0.1,1.6-0.3,2.3-0.6l2.3-0.7
	c0.7-0.3,1.5-0.6,2.2-0.9c0.7-0.3,1.4-0.7,2.1-1.1c0.7-0.4,1.4-0.7,2-1.2l1.9-1.3c0.6-0.5,1.2-1,1.8-1.5c0.3-0.3,0.6-0.5,0.9-0.8
	l0.8-0.8l0.8-0.8c0.3-0.3,0.5-0.5,0.8-0.9l1.5-1.8c0.5-0.6,0.9-1.2,1.3-1.9l0.6-0.9c0.2-0.3,0.4-0.6,0.5-1c0.4-0.7,0.7-1.3,1-2
	c0.6-1.3,1.1-2.7,1.6-4.1c0.2-0.7,0.4-1.4,0.6-2.1l0.4-2.1c0.1-0.7,0.2-1.4,0.3-2.1l0.1-1v-0.5V289v-0.3c0-0.7,0-1.3,0-2v-1
	c0-0.3-0.1-0.7-0.1-1l-0.2-2c-0.1-0.7-0.2-1.3-0.4-1.9s-0.2-1.3-0.4-1.9l-0.6-1.8c-0.1-0.3-0.2-0.6-0.3-0.9l-0.4-0.9l-0.7-1.7
	c-0.2-0.6-0.6-1.1-0.8-1.6c-0.3-0.5-0.5-1-0.9-1.5c-1.7-2.7-3.7-5.1-6.1-7.1l-0.8,0.8c2.2,2.1,4,4.5,5.5,7.2c0.3,0.5,0.5,1,0.7,1.5
	s0.5,1,0.7,1.5l0.6,1.6l0.3,0.8c0.1,0.3,0.1,0.6,0.2,0.8l0.4,1.7c0.2,0.6,0.2,1.2,0.3,1.8c0.1,0.6,0.2,1.2,0.2,1.8l0.1,1.8
	c0,0.3,0,0.6,0,0.9l0,1l-0.1,2l-0.3,1.8c-0.1,0.6-0.2,1.3-0.4,1.9l-0.3,1.9c-0.2,0.6-0.4,1.2-0.6,1.8c-0.5,1.2-1,2.4-1.6,3.6
	c-0.3,0.6-0.7,1.1-1,1.7c-0.2,0.3-0.3,0.6-0.5,0.8l-0.6,0.8c-0.4,0.5-0.8,1.1-1.2,1.6l-1.4,1.5c-0.2,0.3-0.5,0.5-0.7,0.7l-0.8,0.7
	l-0.8,0.7c-0.3,0.2-0.5,0.4-0.8,0.6c-0.6,0.4-1.1,0.8-1.7,1.2l-1.8,1c-0.6,0.3-1.2,0.7-1.8,0.9c-0.6,0.3-1.2,0.6-1.9,0.8
	c-0.6,0.2-1.3,0.5-1.9,0.7l-2,0.5c-0.7,0.2-1.3,0.3-2,0.4c-0.7,0.1-1.3,0.2-2,0.2l-1.9,0.1c-0.7,0-1.5-0.1-2.2-0.1h-0.6h-0.4l-1-0.2
	c-0.7-0.1-1.3-0.2-2-0.3l-2-0.5l-0.5-0.1l-0.5-0.2l-0.9-0.4c-0.6-0.2-1.3-0.5-1.8-0.8l-1.8-0.9c-1.1-0.7-2.2-1.4-3.3-2.2
	c-2.1-1.5-3.9-3.4-5.4-5.5c-0.7-1-1.4-2.1-2-3.2c-0.3-0.5-0.5-1.1-0.8-1.7l-0.4-0.8l-0.3-0.9c-0.8-2.3-1.4-4.6-1.6-7l-0.1-1.6
	c0-0.3,0-0.5,0-0.8l0-1l0.1-2c0,0,0,0.1,0,0.1v0v-0.1v-0.2l0.1-0.4l0.1-0.8c1.3-7.6,5.8-14.2,12.4-18.1c2.3-1.3,4.7-2.3,7.3-2.9
	l1.5-0.3l0.4-0.1h0.3l0.6-0.1l1-0.1h0.2h0.9h1.8v-10.8h-2.2h-0.5h-0.3l-0.4,0.1l-1.8,0.3l-1,0.2l-0.5,0.1l-0.5,0.1l-2.1,0.5
	c-3.5,1-6.8,2.6-9.9,4.6c-3.9,2.6-7.2,6-9.8,9.9c-3,4.6-4.9,9.9-5.5,15.4l-0.1,1.1l0,0.5v0.3v0.5c0,0.7,0,1.3,0,2v1
	c0,0.3,0.1,0.8,0.1,1.2l0.2,2.4c0.1,0.8,0.3,1.5,0.4,2.3c0.1,0.8,0.3,1.5,0.5,2.2l0.7,2.2c0.3,0.7,0.6,1.4,0.9,2.2l0.5,1.1l0.6,1
	c0.4,0.7,0.7,1.4,1.1,2.1c0.8,1.3,1.8,2.6,2.8,3.9c2,2.5,4.4,4.7,7.1,6.5c1.3,0.9,2.7,1.7,4.2,2.5c0.7,0.3,1.5,0.6,2.2,1
	c0.7,0.3,1.5,0.6,2.3,0.8l1.2,0.4l0.6,0.2l0.6,0.1l2.4,0.5c0.8,0.1,1.6,0.2,2.4,0.3l1.2,0.1L525.5,319.8L525.5,319.8z"/>
<polygon class="st1" points="297.1,580.8 292.5,567.4 292.4,567.2 290,567.2 285.4,580.8 281.1,567.2 277.5,567.2 284,587.6 
	284,587.7 286.5,587.7 291.2,573.7 296,587.7 298.4,587.7 304.9,567.2 301.3,567.2 "/>
<polygon class="st1" points="321.4,578.3 328,578.3 328,575 321.4,575 321.4,570.5 329.9,570.5 329.9,567.2 317.9,567.2 
	317.9,587.7 330.2,587.7 330.2,584.4 321.4,584.4 "/>
<path class="st1" d="M353.1,567.2h-2.4l-8.4,20.3l-0.1,0.2h3.7l2.1-5.1h8l2.1,5v0.1h3.7l-8.4-20.4L353.1,567.2z M354.4,579.2h-5.2
	l2.6-6.2L354.4,579.2z"/>
<polygon class="st1" points="378.2,567.2 374.7,567.2 374.7,587.7 387,587.7 387,584.4 378.2,584.4 "/>
<polygon class="st1" points="397.7,570.5 403.1,570.5 403.1,587.7 406.6,587.7 406.6,570.5 412,570.5 412,567.2 397.7,567.2 "/>
<polygon class="st1" points="440.4,575 430,575 430,567.2 426.5,567.2 426.5,587.7 430,587.7 430,578.3 440.4,578.3 440.4,587.7 
	443.9,587.7 443.9,567.2 440.4,567.2 "/>
<polygon class="st1" points="485.1,579 477.7,567.3 477.6,567.2 475.1,567.2 475.1,587.7 478.6,587.7 478.6,575.1 483.9,583.4 
	484,583.4 486.3,583.4 491.6,575.1 491.6,587.7 495.1,587.7 495.1,567.2 492.6,567.2 "/>
<path class="st1" d="M519.1,567.2h-2.4l-8.4,20.3l-0.1,0.2h3.7l2.1-5.1h8l2.1,5v0.1h3.7l-8.4-20.4L519.1,567.2z M520.5,579.2h-5.2
	l2.6-6.2L520.5,579.2z"/>
<polygon class="st1" points="554.5,581.2 543.1,567.3 543,567.2 540.6,567.2 540.6,587.7 544.1,587.7 544.1,573.7 555.4,587.6 
	555.5,587.7 558,587.7 558,567.2 554.5,567.2 "/>
<path class="st1" d="M582.4,567.2H580l-8.4,20.3l-0.1,0.2h3.7l2.1-5.1h8l2.1,5v0.1h3.7l-8.4-20.4L582.4,567.2z M583.8,579.2h-5.2
	l2.6-6.2L583.8,579.2z"/>
<path class="st1" d="M611.8,578.3h5.7v4.7c-1.3,1.1-2.9,1.7-4.6,1.7c-4-0.1-7.2-3.3-7.1-7.3c0.1-3.8,3.1-6.9,6.9-7.1
	c1.9,0,3.8,0.8,5.1,2.1l0.2,0.3l2.4-2.3l-0.2-0.2c-4.1-4.1-10.8-4-14.9,0.1c-4.1,4.1-4,10.8,0.1,14.9c2,2,4.7,3,7.5,3
	c3.1,0,6-1.4,8-3.8l0.1-0.1V575h-9.2V578.3L611.8,578.3z"/>
<polygon class="st1" points="640.6,578.3 647.2,578.3 647.2,575 640.6,575 640.6,570.5 649.1,570.5 649.1,567.2 637.1,567.2 
	637.1,587.7 649.4,587.7 649.4,584.4 640.6,584.4 "/>
<polygon class="st1" points="674.9,579 667.5,567.3 667.4,567.2 664.9,567.2 664.9,587.7 668.4,587.7 668.4,575.1 673.7,583.4 
	673.8,583.4 676.1,583.4 681.4,575.1 681.4,587.7 684.9,587.7 684.9,567.2 682.4,567.2 "/>
<polygon class="st1" points="704.5,578.3 711,578.3 711,575 704.5,575 704.5,570.5 713,570.5 713,567.2 701,567.2 701,587.7 
	713.3,587.7 713.3,584.4 704.5,584.4 "/>
<polygon class="st1" points="741.6,581.2 730.3,567.3 730.2,567.2 727.7,567.2 727.7,587.7 731.2,587.7 731.2,573.7 742.6,587.6 
	742.7,587.7 745.1,587.7 745.1,567.2 741.6,567.2 "/>
<polygon class="st1" points="759.2,567.2 759.2,570.5 764.6,570.5 764.6,587.7 768.1,587.7 768.1,570.5 773.5,570.5 773.5,567.2 "/>
<polygon class="st1" points="679.4,506.5 637,464.7 636.7,464.7 636.7,521.7 640.6,521.7 640.6,480.6 683,522.5 683.3,522.5 
	683.3,465.5 679.4,465.5 "/>
<polygon class="st1" points="805.8,506.6 763.4,464.8 763.1,464.8 763.1,521.8 767,521.8 767,480.8 809.4,522.6 809.7,522.6 
	809.7,465.6 805.8,465.6 "/>
<rect x="608.5" y="465.3" class="st1" width="9.8" height="56.2"/>
<polygon class="st1" points="555.8,521.5 565.6,521.5 565.6,495.8 586.7,495.8 586.7,491.9 565.6,491.9 565.6,469.3 593.7,469.3 
	593.7,465.3 555.8,465.3 "/>
<polygon class="st1" points="888.7,521.8 929.1,521.8 929.1,518.6 898.5,518.6 898.5,495.4 920,495.4 920,492.1 898.5,492.1 
	898.5,468.8 927.9,468.8 927.9,465.6 888.7,465.6 "/>
<path class="st1" d="M405.8,465.3v34.3c0,14,9.1,22.7,24.2,22.7c13.1,0,22.6-8,22.6-22.8v-34.2h-4v31c0,12.4-7.4,18.8-16.9,18.8
	c-11.2,0-16.1-7.2-16.1-19.3v-30.5H405.8L405.8,465.3z"/>
<rect x="315.1" y="465.3" class="st1" width="9.8" height="56.2"/>
<path class="st1" d="M341.6,493.7c0,17,12.6,28.7,28.4,28.7c10.7,0,19-5.8,21.9-14.6l-3.6-1.5c-2.6,7.3-10,12-16.5,12
	c-11.6,0-19.1-8.6-19.1-24.7s7.5-24.7,19.1-24.7c6.4,0,14.5,5.2,16.3,12l3.5-1.6c-3.2-9.4-10.8-14.7-21.5-14.7
	C354.2,464.6,341.6,476.7,341.6,493.7"/>
<path class="st1" d="M824.6,494c0,17,12.6,28.7,28.3,28.7c10.7,0,19-5.8,21.8-14.6l-3.6-1.6c-2.6,7.3-10,12-16.5,12
	c-11.6,0-19.1-8.6-19.1-24.7s7.5-24.7,19.1-24.7c6.4,0,14.5,5.2,16.3,12l3.5-1.6c-3.2-9.4-10.8-14.7-21.5-14.7
	C837.2,464.8,824.6,476.9,824.6,494"/>
<path class="st1" d="M212.9,465.3h-22.5v56.2h9.8v-24.4h12.7c12.1,0,22.3-4.3,22.3-15.9S224.9,465.3,212.9,465.3z M210,493.2h-9.8
	v-23.9h9.8c8.9,0,14.7,4,14.7,12S218.9,493.2,210,493.2z"/>
<path class="st1" d="M293.5,513l-2.8-8.2c-2.2-6.2-6.9-9.1-14.7-9.6v-0.2c8.1-0.2,18.5-4.3,18.5-14.9s-9.8-14.9-21.9-14.9h-22.3
	v56.2h9.8v-26.1h7.8c7.6,0,10.6,3,12.9,10l2.8,8.4c0.8,2.7,1.9,5.3,3.5,7.7H298C295.7,519.1,294.6,516.3,293.5,513z M260.2,491.4
	v-22.1h9.8c8.7,0,14.3,3.5,14.3,11.1c0,8-6.1,11-14.5,11L260.2,491.4L260.2,491.4z"/>
<path class="st1" d="M508,475.8L508,475.8c-3.3-6.8-10.8-11.2-20.6-11.2c-11.5,0-20,6.8-20,15.9c0,8.5,6.3,13.3,15.8,15.7l8.4,2.2
	c7,1.7,12.2,4.3,12.2,9.3c0,6.6-6.1,10.6-15.3,10.7c-9.1,0-15.5-3.2-19.2-10.3l-3.6,1.6c3.5,8,12.4,12.7,23.2,12.7
	c11.4,0,21.4-6.3,21.4-17.2c0-8.7-6.3-13.7-15.6-16.1l-8.4-2.2c-5.4-1.4-12.7-2.8-12.7-8.8c0-6.4,5.7-9.6,13.8-9.6s14,3.2,16.8,8.9
	L508,475.8z"/>
<path class="st1" d="M164.4,521.6h11.1l-27.2-57h-0.3l-25.9,57h3.9l7.7-17h22.8L164.4,521.6z M154.6,500.7h-19.2l9.4-20.7
	L154.6,500.7z"/>
<path class="st1" d="M738.9,521.8H750l-27.2-57h-0.3l-25.9,57h3.9l7.7-17h22.8L738.9,521.8z M729.1,501h-19.2l9.4-20.8L729.1,501z"
	/>
</svg>
