<?xml version="1.0" encoding="utf-8"?>
<!-- Generator: Adobe Illustrator 19.0.0, SVG Export Plug-In . SVG Version: 6.00 Build 0)  -->
<svg version="1.1" id="Layer_1" xmlns="http://www.w3.org/2000/svg" xmlns:xlink="http://www.w3.org/1999/xlink" x="0px" y="0px"
	 width="156.9px" height="160.6px" viewBox="0 0 156.9 160.6" style="enable-background:new 0 0 156.9 160.6;" xml:space="preserve"
	>
<style type="text/css">
	.st0{fill:#BB8559;}
</style>
<path class="st0" d="M156.9,82.9v-2.4c0-0.8-0.1-1.6-0.1-2.4c-0.4-6.2-1.6-12.3-3.5-18.2c-1.8-5.5-4.2-10.8-7.1-15.7
	c-3.6-6-8-11.5-13.1-16.3l-1.2,1.2c4.8,4.8,9,10.3,12.3,16.3c2.7,4.9,4.9,10,6.4,15.4c1.7,5.7,2.6,11.6,2.8,17.5
	c0,0.8,0.1,1.5,0.1,2.3v2.3c0,0.4,0,0.8,0,1.1l-0.1,1.2l-0.2,2.4l-0.3,2.3c-0.1,0.8-0.2,1.6-0.3,2.3c-0.3,1.6-0.5,3.1-0.9,4.7
	c-0.7,3.1-1.6,6.2-2.7,9.3c-0.6,1.5-1.1,3-1.8,4.5s-1.4,3-2.1,4.4c-6.4,12-16,21.9-27.8,28.7l-1.1,0.6c-0.4,0.2-0.8,0.4-1.1,0.6
	c-0.8,0.4-1.5,0.8-2.3,1.2c-1.6,0.7-3.1,1.5-4.7,2.1c-0.8,0.3-1.6,0.6-2.4,0.9s-1.6,0.6-2.5,0.8c-1.7,0.5-3.3,1-5,1.4
	s-3.4,0.7-5.1,1s-3.4,0.5-5.1,0.6s-3.5,0.2-5.2,0.3c-0.9,0-1.7,0-2.5,0h-1.3l-1.4-0.1c-3.5-0.2-6.9-0.6-10.3-1.3
	c-3.4-0.7-6.7-1.6-9.9-2.8c-3.2-1.2-6.3-2.6-9.3-4.2c-3-1.6-5.8-3.4-8.5-5.4c-10.6-7.9-18.8-18.6-23.6-30.9
	c-0.3-0.7-0.6-1.5-0.8-2.2s-0.5-1.5-0.8-2.2c-0.4-1.5-0.9-3-1.2-4.5c-0.7-3-1.2-6-1.6-9.1c-0.1-1.5-0.3-3-0.3-4.5
	c0-0.7-0.1-1.5-0.1-2.2v-2.1c0-0.4,0-0.7,0-1.1l0.1-1.2l0.1-2.4l0.2-2c0.1-0.7,0.2-1.4,0.3-2.1c3.6-23.8,19.6-44,41.9-53
	c1.6-0.7,3.2-1.2,4.7-1.7s3-0.9,4.4-1.2c0.7-0.2,1.4-0.3,2-0.5l1.9-0.4l0.9-0.2l0.9-0.1l1.7-0.3c2.2-0.3,4.1-0.4,5.5-0.5
	s2.8-0.1,3.6-0.1h0.8V0h-1c-0.9,0-2.1,0-4.1,0.2S71,0.6,68.3,1l-2.1,0.4l-1.1,0.2L64,1.8l-2.3,0.5c-0.8,0.2-1.6,0.4-2.5,0.7
	c-1.7,0.4-3.4,1.1-5.2,1.7s-3.7,1.4-5.6,2.3c-14.1,6.2-26.1,16.3-34.7,29C6.6,46.5,2.1,58.6,0.6,71.2c-0.1,0.8-0.2,1.7-0.3,2.5
	l-0.2,2.7L0,78.8V80c0,0.4,0,0.9,0,1.3v2.7c0,0.9,0.1,1.7,0.1,2.6c0.1,1.7,0.3,3.5,0.5,5.2c0.5,3.5,1.3,7,2.3,10.5
	c0.4,1.7,1,3.4,1.6,5.1c0.3,0.9,0.6,1.7,1,2.5s0.6,1.7,1,2.5c5.9,13.8,15.5,25.6,27.8,34.2c3.1,2.1,6.4,4.1,9.8,5.8
	c3.4,1.7,7,3.1,10.6,4.3c3.6,1.2,7.3,2.1,11.1,2.8c3.7,0.6,7.5,1,11.3,1.1h1.4H80c1,0,2,0,2.9-0.1c1.9-0.1,3.8-0.2,5.7-0.5
	s3.8-0.6,5.6-0.9s3.7-0.8,5.5-1.3s3.6-1.1,5.4-1.7c0.9-0.3,1.8-0.7,2.6-1s1.7-0.7,2.6-1.1c1.7-0.7,3.4-1.6,5.1-2.4
	c0.8-0.4,1.6-0.9,2.5-1.4c0.4-0.2,0.8-0.4,1.2-0.7l1.2-0.7c12.4-7.7,22.4-18.7,28.8-31.8c0.7-1.6,1.5-3.2,2.1-4.8s1.2-3.2,1.8-4.9
	c1.1-3.2,1.9-6.5,2.5-9.9c0.3-1.6,0.5-3.3,0.8-5c0.1-0.8,0.2-1.6,0.3-2.5l0.1-1.2l0-0.6v-0.3v-0.4l0.1-2.4V84L156.9,82.9L156.9,82.9
	z"/>
<path class="st0" d="M32.6,57.9c-2.1,4.3-3.6,8.9-4.5,13.6c-0.4,2.3-0.7,4.6-0.9,6.9l-0.1,1.7c0,0.6,0,1.1,0,1.7v1.7
	c0,0.6,0.1,1.1,0.1,1.7c0.3,4.3,1.1,8.5,2.5,12.6c1.2,3.8,2.9,7.5,5,10.9c2.1,3.6,4.7,6.8,7.6,9.8l0.9-0.9c-2.7-3-5.1-6.2-7.1-9.8
	c-1.9-3.4-3.4-7-4.5-10.7c-1.2-4-1.9-8.1-2-12.2c0-0.5,0-1.1,0-1.6s0-1.1,0-1.6s0-1.1,0.1-1.6l0.1-1.7c0.2-2.2,0.5-4.3,1-6.5
	c3-13.8,11.7-25.6,23.9-32.6c2.1-1.2,4.2-2.2,6.4-3.1c1.1-0.5,2.3-0.8,3.4-1.2s2.3-0.7,3.5-0.9s2.4-0.5,3.5-0.7s2.4-0.3,3.6-0.4
	s2.4-0.2,3.6-0.2c0.6,0,1.2,0,1.8,0h0.9l0.9,0.1c19.1,1,35.8,13.2,42.8,31c0.8,2,1.5,4.1,2,6.2c0.5,2.1,0.9,4.2,1.1,6.3
	c0.1,1.1,0.2,2.1,0.2,3.1c0,0.5,0,1.1,0,1.6s0,1,0,1.5c0,0.3,0,0.5,0,0.8l0,0.8l-0.1,1.6l-0.2,1.4c-0.1,0.5-0.1,1-0.2,1.5
	c-2.5,16.6-13.6,30.6-29.1,36.8c-1.1,0.5-2.2,0.8-3.3,1.2s-2.1,0.6-3,0.9c-1.7,0.4-3.5,0.8-5.2,1c-1.5,0.2-2.9,0.3-3.8,0.3
	s-2,0-2.5,0h-0.4v10.3h0.4c0.6,0,1.4,0,2.9-0.1s3-0.3,4.8-0.6c2.1-0.3,4.2-0.8,6.3-1.4c1.2-0.3,2.4-0.7,3.6-1.1s2.6-1,3.9-1.6
	c9.8-4.3,18.1-11.3,24.1-20.2c4.9-7.3,8.1-15.7,9.1-24.5c0.1-0.6,0.1-1.2,0.2-1.8l0.1-1.9l0-1.6v-0.8c0-0.3,0-0.6,0-0.9
	c0-0.6,0-1.2,0-1.9s-0.1-1.2-0.1-1.8c-0.1-1.2-0.2-2.4-0.4-3.6c-0.3-2.4-0.8-4.9-1.5-7.2c-0.7-2.4-1.5-4.8-2.5-7.1
	c-4.1-9.6-10.8-17.8-19.4-23.7c-2.2-1.5-4.5-2.8-6.8-4c-2.4-1.2-4.8-2.2-7.4-3c-5-1.6-10.3-2.5-15.6-2.7
	C61.4,27.2,41.9,39,32.6,57.9z"/>
<path class="st0" d="M78.5,115.5H79c0.8,0,1.5,0,2.3,0l2.5-0.3c0.8-0.1,1.6-0.2,2.4-0.4c0.8-0.1,1.6-0.3,2.3-0.6l2.3-0.7
	c0.7-0.3,1.5-0.6,2.2-0.9c0.7-0.3,1.4-0.7,2.1-1.1c0.7-0.4,1.4-0.7,2-1.2l1.9-1.3c0.6-0.5,1.2-1,1.8-1.5c0.3-0.3,0.6-0.5,0.9-0.8
	l0.8-0.8l0.8-0.8c0.3-0.3,0.5-0.5,0.8-0.9l1.5-1.8c0.5-0.6,0.9-1.2,1.3-1.9l0.6-0.9c0.2-0.3,0.4-0.6,0.5-1c0.4-0.7,0.7-1.3,1-2
	c0.6-1.3,1.1-2.7,1.6-4.1c0.2-0.7,0.5-1.4,0.6-2.1l0.4-2.1c0.1-0.7,0.2-1.4,0.3-2.1l0.1-1V85v-0.3v-0.3c0-0.7,0-1.3,0-2v-1
	c0-0.3-0.1-0.7-0.1-1l-0.2-2c-0.1-0.7-0.2-1.3-0.4-1.9s-0.2-1.3-0.4-1.9l-0.6-1.8c-0.1-0.3-0.2-0.6-0.3-0.9l-0.4-0.9l-0.7-1.7
	c-0.2-0.6-0.6-1.1-0.8-1.6s-0.5-1-0.9-1.5c-1.7-2.7-3.7-5.1-6.1-7.1l-0.8,0.8c2.2,2.1,4,4.5,5.5,7.2c0.3,0.5,0.5,1,0.7,1.5
	s0.5,1,0.7,1.5l0.6,1.6l0.3,0.8c0.1,0.3,0.1,0.6,0.2,0.8l0.4,1.7c0.1,0.6,0.2,1.2,0.3,1.8s0.2,1.2,0.2,1.8l0.1,1.8
	c0,0.3,0,0.6,0,0.9l0,1l-0.1,2l-0.3,1.8c-0.1,0.6-0.2,1.3-0.4,1.9l-0.3,1.9c-0.2,0.6-0.4,1.2-0.6,1.8c-0.5,1.2-1,2.4-1.6,3.6
	c-0.3,0.6-0.7,1.1-1,1.7c-0.2,0.3-0.3,0.6-0.5,0.8l-0.6,0.8c-0.4,0.5-0.8,1.1-1.2,1.6l-1.4,1.5c-0.2,0.3-0.5,0.5-0.7,0.7l-0.8,0.7
	l-0.8,0.7c-0.3,0.2-0.5,0.4-0.8,0.6c-0.5,0.4-1.1,0.8-1.6,1.2l-1.8,1c-0.6,0.3-1.2,0.7-1.8,0.9c-0.6,0.3-1.2,0.6-1.9,0.8
	c-0.6,0.2-1.3,0.5-1.9,0.7l-2,0.5c-0.7,0.2-1.3,0.3-2,0.4c-0.7,0.1-1.3,0.2-2,0.2l-1.9,0.1c-0.7,0-1.5-0.1-2.2-0.1h-0.6h-0.4l-1-0.2
	c-0.7-0.1-1.3-0.2-2-0.3l-2-0.5l-0.5-0.1l-0.5-0.2l-0.9-0.4c-0.6-0.2-1.3-0.5-1.9-0.8l-1.8-0.9c-1.1-0.7-2.2-1.4-3.3-2.2
	c-2.1-1.5-3.9-3.4-5.4-5.5c-0.7-1-1.4-2.1-2-3.2c-0.3-0.6-0.5-1.1-0.8-1.7l-0.4-0.8l-0.3-0.9c-0.8-2.3-1.4-4.6-1.6-7l-0.1-1.6
	c0-0.3,0-0.5,0-0.8l0-1l0.1-2c0,0,0,0.1,0,0.1v0V80v-0.2l0.1-0.4l0.1-0.8C55.4,71,60,64.4,66.6,60.5c2.3-1.3,4.7-2.3,7.3-2.9
	l1.5-0.3l0.4-0.1H76l0.6-0.1l1-0.1h0.2h0.9h1.8V46.3h-2.2h-0.5h-0.3L77,46.3l-1.8,0.3l-1,0.2l-0.5,0.1L73.2,47l-2.1,0.6
	c-3.5,1-6.8,2.6-9.9,4.6c-3.9,2.6-7.2,6-9.8,9.9c-3,4.6-4.9,9.9-5.5,15.4l-0.1,1.1l0,0.6v0.3v0.5c0,0.7,0,1.3,0,2v1
	c0,0.3,0.1,0.8,0.1,1.1l0.2,2.4c0.1,0.8,0.3,1.5,0.4,2.3c0.1,0.8,0.3,1.5,0.5,2.2l0.7,2.2c0.3,0.7,0.6,1.4,0.9,2.2l0.5,1.1l0.6,1
	c0.4,0.7,0.7,1.4,1.1,2.1c0.8,1.3,1.8,2.6,2.8,3.9c2,2.5,4.4,4.7,7.1,6.5c1.3,0.9,2.7,1.7,4.2,2.5c0.7,0.3,1.5,0.6,2.2,1
	c0.7,0.3,1.5,0.6,2.3,0.8l1.2,0.4l0.6,0.2l0.6,0.1l2.4,0.5c0.8,0.1,1.6,0.2,2.4,0.3l1.2,0.1L78.5,115.5L78.5,115.5z"/>
</svg>
