<?xml version="1.0" encoding="utf-8"?>
<!-- Generator: Adobe Illustrator 17.0.0, SVG Export Plug-In . SVG Version: 6.00 Build 0)  -->
<!DOCTYPE svg PUBLIC "-//W3C//DTD SVG 1.1 Tiny//EN" "http://www.w3.org/Graphics/SVG/1.1/DTD/svg11-tiny.dtd">
<svg version="1.1" baseProfile="tiny" id="Layer_1" xmlns="http://www.w3.org/2000/svg" xmlns:xlink="http://www.w3.org/1999/xlink"
	 x="0px" y="0px" width="18px" height="18px" viewBox="0 0 18 18" overflow="visible" xml:space="preserve">
<path fill="#808080" d="M18.002,3.677c-0.672,0.336-1.342,0.447-2.125,0.559c0.783-0.447,1.342-1.118,1.564-2.012
	c-0.672,0.449-1.453,0.67-2.349,0.894C14.424,2.446,13.416,2,12.408,2c-2.01,0-3.691,1.565-3.691,3.579c0,0.336,0,0.559,0.115,0.781
	C5.812,6.25,3.129,4.796,1.227,2.56C0.891,3.118,0.779,3.677,0.779,4.348c0,1.231,0.672,2.35,1.678,3.02
	c-0.559,0-1.119-0.224-1.678-0.448l0,0c0,1.789,1.23,3.243,2.908,3.578C3.352,10.61,3.016,10.61,2.68,10.61
	c-0.223,0-0.445,0-0.67-0.112c0.447,1.454,1.787,2.461,3.465,2.461c-1.227,1.007-2.795,1.565-4.584,1.565c-0.334,0-0.559,0-0.892,0
	c1.678,1.007,3.576,1.679,5.592,1.679c6.709,0,10.398-5.48,10.398-10.288V5.466C16.881,5.021,17.553,4.46,18.002,3.677L18.002,3.677
	z"/>
</svg>
