<svg id="Layer_2" data-name="Layer 2" xmlns="http://www.w3.org/2000/svg" viewBox="0 0 706.61 234.71"><defs><style>.cls-1{fill:#fff;}.cls-2{fill:#753bbd;}</style></defs><title>Artboard 1</title><g id="_Group_" data-name="&lt;Group&gt;"><path class="cls-1" d="M175.14,18.69v91.14h-36.2L96.11,34.18H82l.26,75.65H68.64V18.69h33.85l44.4,76h15l-.39-76Z"/><path class="cls-2" d="M176.79,111.48H138L95.15,35.83H83.7L84,111.48H67V17h36.45l44.4,76H160.2l-.39-76h17Zm-36.88-3.3h33.58V20.34H163.13l.39,76H145.94l-44.4-76H70.29v87.84H80.65l-.26-75.65H97.07Z"/><path class="cls-1" d="M263,75.33l-7.55,24.35-29.56,12.76L193.5,97.85l-5.34-23.18v-56h15V74.16l3.78,15,19,8.2,22.52-23.7V18.69H263Z"/><path class="cls-2" d="M225.9,114.24,192.07,99l-5.56-24.34V17h18.27V74l3.53,14,17.21,7.42L246.79,73V17h17.88V75.58l-7.85,25.31Zm-31-17.55,31,13.95,28.19-12.17,7.25-23.38V20.34H250.09v54l-23.77,25-20.81-9-4-16v-54H189.81V74.49Z"/><path class="cls-1" d="M348.17,109.83H332.81L325.13,83H288.67l-7.55,26.82H266.67l27.86-91.14h25.91Zm-45-76.69L292.58,70.51h29.69L310.81,33.14Z"/><path class="cls-2" d="M350.4,111.48H331.57l-7.68-26.82h-34l-7.55,26.82H264.44L293.31,17h28.35Zm-16.35-3.3h11.89L319.22,20.34H295.75L268.9,108.18h11l7.55-26.82h38.95Zm-9.56-36H290.4l11.48-40.67H312Zm-29.74-3.3H320L309.59,34.79h-5.21Z"/><path class="cls-1" d="M411.19,23l10.16,18.62-6.51,16.14-10.68,5.86L418,81.19l5.73,28.64H409.23L405.46,86,389.7,69.08H372v40.75H357.68V18.69h32.55ZM389.7,56.71l10.94-2,5.73-10.68L389.7,30.54h-18.1V56.71Z"/><path class="cls-2" d="M425.7,111.48H407.83l-3.92-24.72L389,70.73H373.65v40.75H356V17l34.53,0,21.71,4.45,10.9,20-7,17.41-9.49,5.21L419.5,80.48Zm-15.06-3.3h11L416.42,81.9,401.66,63.1l11.87-6.51,6-14.88-9.42-17.26-20-4.11H359.33v87.84h11V67.43h20.08L407,85.25ZM389.85,58.36H370V28.89h20.33l18.18,14.77-6.75,12.58Zm-16.59-3.3h16.3l10-1.79,4.71-8.77L389.12,32.19H373.26Z"/><path class="cls-1" d="M502.72,31.45H472.77v78.38H459V31.45H429.16V18.69h73.56Z"/><path class="cls-2" d="M474.42,111.48h-17.1V33.1H427.5V17h76.86V33.1H474.42Zm-13.8-3.3h10.5V29.8h29.95V20.34H430.81V29.8h29.82Z"/><path class="cls-2" d="M658,74.16v1l-.78.78-3,1.17,1.17,2.73v1.3l-.91.91-57,20.57,2,5.34-.39,1.56-.52.26h-1L558.18,90.3l-4,14.19-1,.91-.39.26-1.43-1.17-28.64-78.9.52-1.69.39-.13h1.17L559.87,41l5.47-19.14,1-1h.39l1.43.91,3.13,8.46L603,18.69l1.82.91,8.33,22.92,3.12-1.43h1.3l.78,1,8.59,23.57,23.31-8.46h1.3l.78.91Z"/><path class="cls-1" d="M109.52,189.41H55.88l-7.55,26.82H33.87l27.86-91.14h43.1l27.73,91.14H117.2Zm-49.74-12.5h46.87L95.2,139.54H70.33Z"/><path class="cls-2" d="M134.79,217.88H116l-7.68-26.82H57.13l-7.55,26.82H31.64l28.87-94.44h45.54Zm-16.35-3.3h11.89l-26.73-87.84H63L36.1,214.58h11l7.55-26.82h56.14Zm-9.56-36H57.6l11.48-40.67H96.42ZM62,175.26h42.46L94,141.19H71.58Z"/><path class="cls-1" d="M194.67,131.34l7.68,16.93-3.78,13.15-11.33,8.07v.26l12.63,7.55,4.56,13.8-8.07,18.36-22.26,6.77H141.94V125.09h29.69ZM170.84,163.5,189.07,150l-4.3-10.16-13.41-3.25h-16v27Zm1.56,41.27,18.1-14.32L171,176.13H155.35v28.64Z"/><path class="cls-2" d="M174.34,217.88H140.29V123.44h31.56l24,6.51,8.25,18.19L200,162.42l-9.94,7.08,11.19,6.69,4.95,15-8.63,19.63Zm-30.75-3.3h30.26l21.3-6.48L202.67,191,198.5,178.4l-12.91-7.72v-2l11.55-8.23,3.45-12-7.11-15.67-22.08-6H143.59ZM173,206.42H153.7V174.47h17.81l21.71,15.92Zm-16-3.3h14.83l15.95-12.62-17.35-12.72H157Zm14.39-38H153.7V134.89l18.05,0L186,138.39l5.13,12.12ZM157,161.85h13.3L187,149.4l-3.47-8.2-12.41-3H157Z"/><path class="cls-1" d="M275,138.24H229v25.39h45.83v12.89H229v26.56h45.83v13.15H214.72V125.09H275Z"/><path class="cls-2" d="M276.52,217.88H213.07V123.44h63.58v16.45h-46V162h45.83v16.19H230.69v23.26h45.83Zm-60.15-3.3h56.85v-9.85H227.39V174.87h45.83v-9.59H227.39V136.59h46v-9.85h-57Z"/><path class="cls-1" d="M338.93,129.38,349.08,148l-6.51,16.14L331.9,170l13.8,17.58,5.73,28.64H337L333.2,192.4l-15.75-16.93H299.74v40.75H285.42V125.09H318Zm-21.48,33.72,10.94-2,5.73-10.68-16.67-13.54h-18.1v26.17Z"/><path class="cls-2" d="M353.44,217.88H335.57l-3.92-24.72-14.92-16H301.39v40.75H283.77V123.44l34.53,0L340,127.92l10.89,20-7,17.41-9.49,5.21,12.84,16.36Zm-15.06-3.3h11l-5.26-26.28L329.4,169.5,341.26,163l6-14.88-9.41-17.26-20-4.11H287.07v87.84h11V173.82h20.08l16.59,17.82Zm-20.79-49.82H297.7V135.28H318l18.18,14.77-6.75,12.58ZM301,161.46h16.3l10-1.79L332,150.9l-15.15-12.31H301Z"/><path class="cls-1" d="M423.95,136.93l12.24,33.72-12.24,33.72-35,11.85H361.19V125.09h27.73Zm-34.24,65.62,23.7-8.07,8.07-23.83-8.07-23.83-23.7-8.07H375.25v63.8Z"/><path class="cls-2" d="M389.2,217.88H359.54V123.44H389.2l36,12.19,12.71,35-12.71,35Zm-26.35-3.3h25.81l34-11.51,11.76-32.41-11.76-32.41-34-11.51H362.84ZM390,204.21H373.6v-67.1H390l.26.09,24.47,8.33,8.51,25.13-8.51,25.13Zm-13.08-3.3h12.53l22.67-7.72,7.63-22.53-7.63-22.53-22.67-7.72H376.9Z"/><path class="cls-1" d="M506.62,138.24h-46v25.39h45.83v12.89H460.66v26.56h45.83v13.15H446.34V125.09h60.28Z"/><path class="cls-2" d="M508.15,217.88H444.69V123.44h63.58v16.45h-46V162h45.83v16.19H462.32v23.26h45.83ZM448,214.58h56.85v-9.85H459V174.87h45.83v-9.59H459V136.59h46v-9.85H448Z"/><path class="cls-1" d="M577.32,138.24h-46v25.39h45.83v12.89H531.36v26.56h45.83v13.15H517V125.09h60.28Z"/><path class="cls-2" d="M578.84,217.88H515.39V123.44H579v16.45H533V162h45.83v16.19H533v23.26h45.83Zm-60.15-3.3h56.85v-9.85H529.71V174.87h45.83v-9.59H529.71V136.59h46v-9.85h-57Z"/><path class="cls-1" d="M674.32,125.09v91.14h-26l-42.83-75.65h-4.17l.26,75.65H587.87V125.09h24L656,200.73H661l-.39-75.65Z"/><path class="cls-2" d="M676,217.88H647.32l-42.83-75.65h-1.55l.26,75.65h-17V123.44h26.55l44.14,75.65h2.47L659,123.44h17Zm-26.73-3.3h23.43V126.74H662.31l.39,75.65H655l-44.14-75.65H589.52v87.84h10.37l-.26-75.65h6.78Z"/></g><polygon class="cls-1" points="591.64 99.94 568.21 35.75 564.3 49.68 530.32 32.36 552.32 93.69 555.58 81.84 591.64 99.94"/><polygon class="cls-1" points="572.76 34.58 589.17 79.75 621.59 67.91 613.91 46.81 609.09 48.38 600.5 24.29 590.08 28.06 598.93 52.15 591.9 54.89 582.92 30.8 572.76 34.58"/><polygon class="cls-1" points="619.77 89.65 602.45 79.75 595.94 98.37 619.77 89.65"/><polygon class="cls-1" points="634.61 78.71 631.22 69.08 615.6 74.81 619.12 84.31 620.94 89.26 624.06 82.49 627.58 81.32 629.14 86 632.39 79.49 634.61 78.71"/><polygon class="cls-1" points="651.66 72.59 648.02 62.83 642.94 64.91 632.26 68.43 635.91 78.19 640.21 76.63 641.9 81.32 643.72 80.93 648.67 78.97 649.19 78.84 647.24 74.16 651.66 72.59"/></svg>